<svg data-v-0dd9719b="" version="1.0" xmlns="http://www.w3.org/2000/svg"
    xmlns:xlink="http://www.w3.org/1999/xlink" width="100%" height="100%"
    viewBox="0 0 340.000000 250.000000" preserveAspectRatio="xMidYMid meet"
    color-interpolation-filters="sRGB" style="margin: auto;">
    <rect data-v-0dd9719b="" x="0" y="0" width="100%" height="100%" fill="#F9FAFB" fill-opacity="1"
        class="background"></rect> <!---->
    <g data-v-0dd9719b="" fill="#4a93fa" class="icon-text-wrapper icon-svg-group iconsvg"
        transform="translate(36.31500244140625,95)">
        <g class="iconsvg-imagesvg" transform="translate(0,0)">
            <g>
                <rect fill="#4a93fa" fill-opacity="0" stroke-width="2" x="0" y="0" width="60"
                    height="60" class="image-rect"></rect>
                <svg filter="url(#colors5497192817)" x="0" y="0" width="60" height="60"
                    filtersec="colorsf4522412006" class="image-svg-svg primary"
                    style="overflow: visible;">
                    <svg fill="#000000" xmlns="http://www.w3.org/2000/svg"
                        xmlns:xlink="http://www.w3.org/1999/xlink" viewBox="-2 -2 28 28"
                        version="1.1" x="0px" y="0px">
                        <title>93 -Diagram- (Outline)</title>
                        <desc>Created with Sketch.</desc>
                        <g stroke="none" stroke-width="1" fill="none" fill-rule="evenodd">
                            <g fill="#000000">
                                <path
                                    d="M14,4 C14,5.10471525 13.1047153,6 12,6 C10.8952847,6 10,5.10471525 10,4 C10,2.89528475 10.8952847,2 12,2 C13.1047153,2 14,2.89528475 14,4 Z M16,4 C16,1.79071525 14.2092847,0 12,0 C9.79071525,0 8,1.79071525 8,4 C8,6.20928475 9.79071525,8 12,8 C14.2092847,8 16,6.20928475 16,4 Z"></path>
                                <path
                                    d="M14,20 C14,21.1047153 13.1047153,22 12,22 C10.8952847,22 10,21.1047153 10,20 C10,18.8952847 10.8952847,18 12,18 C13.1047153,18 14,18.8952847 14,20 Z M16,20 C16,17.7907153 14.2092847,16 12,16 C9.79071525,16 8,17.7907153 8,20 C8,22.2092847 9.79071525,24 12,24 C14.2092847,24 16,22.2092847 16,20 Z"></path>
                                <path
                                    d="M20,14 C18.8952847,14 18,13.1047153 18,12 C18,10.8952847 18.8952847,10 20,10 C21.1047153,10 22,10.8952847 22,12 C22,13.1047153 21.1047153,14 20,14 Z M20,16 C22.2092847,16 24,14.2092847 24,12 C24,9.79071525 22.2092847,8 20,8 C17.7907153,8 16,9.79071525 16,12 C16,14.2092847 17.7907153,16 20,16 Z"></path>
                                <path
                                    d="M4,14 C2.89528475,14 2,13.1047153 2,12 C2,10.8952847 2.89528475,10 4,10 C5.10471525,10 6,10.8952847 6,12 C6,13.1047153 5.10471525,14 4,14 Z M4,16 C6.20928475,16 8,14.2092847 8,12 C8,9.79071525 6.20928475,8 4,8 C1.79071525,8 0,9.79071525 0,12 C0,14.2092847 1.79071525,16 4,16 Z"></path>
                                <path
                                    d="M6.70710678,9.70710678 L9.70710678,6.70710678 C10.0976311,6.31658249 10.0976311,5.68341751 9.70710678,5.29289322 C9.31658249,4.90236893 8.68341751,4.90236893 8.29289322,5.29289322 L5.29289322,8.29289322 C4.90236893,8.68341751 4.90236893,9.31658249 5.29289322,9.70710678 C5.68341751,10.0976311 6.31658249,10.0976311 6.70710678,9.70710678 Z"></path>
                                <path
                                    d="M17.2928932,14.2928932 L14.2928932,17.2928932 C13.9023689,17.6834175 13.9023689,18.3165825 14.2928932,18.7071068 C14.6834175,19.0976311 15.3165825,19.0976311 15.7071068,18.7071068 L18.7071068,15.7071068 C19.0976311,15.3165825 19.0976311,14.6834175 18.7071068,14.2928932 C18.3165825,13.9023689 17.6834175,13.9023689 17.2928932,14.2928932 Z"></path>
                                <path
                                    d="M7,13 L17,13 C17.5522847,13 18,12.5522847 18,12 C18,11.4477153 17.5522847,11 17,11 L7,11 C6.44771525,11 6,11.4477153 6,12 C6,12.5522847 6.44771525,13 7,13 Z"></path>
                            </g>
                        </g>
                    </svg>
                </svg>
                <defs>
                    <filter id="colors5497192817">
                        <feColorMatrix type="matrix"
                            values="0 0 0 0 0.2890625  0 0 0 0 0.57421875  0 0 0 0 0.9765625  0 0 0 1 0"
                            class="icon-fecolormatrix"></feColorMatrix>
                    </filter>
                    <filter id="colorsf4522412006">
                        <feColorMatrix type="matrix"
                            values="0 0 0 0 0.99609375  0 0 0 0 0.99609375  0 0 0 0 0.99609375  0 0 0 1 0"
                            class="icon-fecolormatrix"></feColorMatrix>
                    </filter>
                    <filter id="colorsb4824782630">
                        <feColorMatrix type="matrix"
                            values="0 0 0 0 0  0 0 0 0 0  0 0 0 0 0  0 0 0 1 0"
                            class="icon-fecolormatrix"></feColorMatrix>
                    </filter>
                </defs>
            </g>
        </g>
        <g transform="translate(67,21.81999969482422)">
            <g data-gra="path-name" fill-rule="" class="tp-name iconsvg-namesvg">
                <g transform="scale(1)">
                    <g>
                        <path
                            d="M0.73-15.97L12.45-15.97 12.45-13.39 8.19-13.39 8.19 0 4.99 0 4.99-13.39 0.73-13.39 0.73-15.97ZM25.63 0L24.57-3.04 18.21-3.04 17.16 0 13.8 0 19.54-15.99 23.27-15.99 29.01 0 25.63 0ZM19.08-5.61L23.7-5.61 21.39-12.29 19.08-5.61ZM31.16-15.97L34.37-15.97 34.37 0 31.16 0 31.16-15.97ZM40.73-15.97L40.73-2.54 45.99-2.54 45.99 0 37.52 0 37.52-15.97 40.73-15.97ZM55.44 0.16Q53.2 0.16 51.32-0.89 49.44-1.94 48.35-3.81 47.25-5.67 47.25-8.03L47.25-8.03Q47.25-10.36 48.35-12.23 49.44-14.09 51.32-15.15 53.2-16.2 55.44-16.2L55.44-16.2Q57.7-16.2 59.57-15.15 61.43-14.09 62.52-12.23 63.61-10.36 63.61-8.03L63.61-8.03Q63.61-5.67 62.52-3.81 61.43-1.94 59.56-0.89 57.68 0.16 55.44 0.16L55.44 0.16ZM55.44-2.7Q56.88-2.7 57.98-3.35 59.08-4 59.69-5.22 60.31-6.43 60.31-8.03L60.31-8.03Q60.31-9.63 59.69-10.83 59.08-12.04 57.98-12.68 56.88-13.32 55.44-13.32L55.44-13.32Q54-13.32 52.89-12.68 51.78-12.04 51.16-10.83 50.54-9.63 50.54-8.03L50.54-8.03Q50.54-6.43 51.16-5.22 51.78-4 52.89-3.35 54-2.7 55.44-2.7L55.44-2.7ZM77.93 0L74.22 0 70.7-6.22 69.19-6.22 69.19 0 65.99 0 65.99-15.97 71.98-15.97Q73.84-15.97 75.14-15.32 76.44-14.67 77.1-13.56 77.75-12.45 77.75-11.07L77.75-11.07Q77.75-9.5 76.83-8.23 75.92-6.96 74.11-6.48L74.11-6.48 77.93 0ZM69.19-13.32L69.19-8.63 71.87-8.63Q73.17-8.63 73.81-9.26 74.45-9.88 74.45-11.01L74.45-11.01Q74.45-12.1 73.81-12.71 73.17-13.32 71.87-13.32L71.87-13.32 69.19-13.32ZM98.04 0L94.34 0 90.81-6.22 89.3-6.22 89.3 0 86.1 0 86.1-15.97 92.09-15.97Q93.95-15.97 95.25-15.32 96.56-14.67 97.21-13.56 97.86-12.45 97.86-11.07L97.86-11.07Q97.86-9.5 96.94-8.23 96.03-6.96 94.22-6.48L94.22-6.48 98.04 0ZM89.3-13.32L89.3-8.63 91.98-8.63Q93.28-8.63 93.92-9.26 94.56-9.88 94.56-11.01L94.56-11.01Q94.56-12.1 93.92-12.71 93.28-13.32 91.98-13.32L91.98-13.32 89.3-13.32ZM110.03-13.39L103.97-13.39 103.97-9.38 109.35-9.38 109.35-6.84 103.97-6.84 103.97-2.61 110.03-2.61 110.03 0 100.77 0 100.77-15.99 110.03-15.99 110.03-13.39ZM118.45 0.16Q116.78 0.16 115.44-0.41 114.1-0.98 113.33-2.06 112.55-3.13 112.53-4.6L112.53-4.6 115.96-4.6Q116.03-3.62 116.66-3.04 117.28-2.47 118.38-2.47L118.38-2.47Q119.5-2.47 120.14-3.01 120.79-3.55 120.79-4.42L120.79-4.42Q120.79-5.13 120.35-5.58 119.92-6.04 119.26-6.3 118.61-6.57 117.47-6.89L117.47-6.89Q115.91-7.34 114.94-7.79 113.97-8.24 113.27-9.14 112.57-10.04 112.57-11.55L112.57-11.55Q112.57-12.97 113.28-14.03 113.99-15.08 115.27-15.64 116.55-16.2 118.2-16.2L118.2-16.2Q120.67-16.2 122.22-15 123.76-13.8 123.92-11.65L123.92-11.65 120.4-11.65Q120.35-12.47 119.7-13.01 119.05-13.55 117.97-13.55L117.97-13.55Q117.03-13.55 116.47-13.06 115.91-12.58 115.91-11.67L115.91-11.67Q115.91-11.03 116.34-10.61 116.76-10.18 117.39-9.92 118.02-9.66 119.16-9.31L119.16-9.31Q120.72-8.85 121.7-8.4 122.68-7.94 123.39-7.02 124.1-6.11 124.1-4.62L124.1-4.62Q124.1-3.34 123.44-2.24 122.78-1.14 121.49-0.49 120.21 0.16 118.45 0.16L118.45 0.16ZM126.83-15.97L130.03-15.97 130.03-6.09Q130.03-4.46 130.88-3.6 131.72-2.75 133.26-2.75L133.26-2.75Q134.81-2.75 135.66-3.6 136.5-4.46 136.5-6.09L136.5-6.09 136.5-15.97 139.73-15.97 139.73-6.11Q139.73-4.07 138.85-2.67 137.97-1.26 136.49-0.55 135.02 0.16 133.21 0.16L133.21 0.16Q131.42 0.16 129.97-0.55 128.52-1.26 127.67-2.67 126.83-4.07 126.83-6.11L126.83-6.11 126.83-15.97ZM156.62-15.97L160.23-15.97 160.23 0 157.03 0 157.03-10.39 152.75 0 150.32 0 146.02-10.39 146.02 0 142.82 0 142.82-15.97 146.46-15.97 151.54-4.1 156.62-15.97ZM172.66-13.39L166.59-13.39 166.59-9.38 171.97-9.38 171.97-6.84 166.59-6.84 166.59-2.61 172.66-2.61 172.66 0 163.39 0 163.39-15.99 172.66-15.99 172.66-13.39ZM176.98 0.16Q176.11 0.16 175.55-0.38 174.99-0.92 174.99-1.72L174.99-1.72Q174.99-2.52 175.55-3.05 176.11-3.59 176.98-3.59L176.98-3.59Q177.83-3.59 178.38-3.05 178.92-2.52 178.92-1.72L178.92-1.72Q178.92-0.92 178.38-0.38 177.83 0.16 176.98 0.16L176.98 0.16ZM192.36 0L191.3-3.04 184.94-3.04 183.89 0 180.53 0 186.27-15.99 190-15.99 195.74 0 192.36 0ZM185.81-5.61L190.43-5.61 188.12-12.29 185.81-5.61ZM197.89-15.97L201.1-15.97 201.1 0 197.89 0 197.89-15.97Z"
                            transform="translate(-0.7300000190734863, 16.200000762939453)"></path>
                    </g> <!----> <!----> <!----> <!----> <!----> <!----> <!---->
                </g>
            </g> <!---->
        </g>
    </g>
    <defs v-gra="od"></defs>
</svg>